<svg width="367" height="64" viewBox="0 0 367 64" fill="none" xmlns="http://www.w3.org/2000/svg">
<g clip-path="url(#clip0_2342_3334)">
<mask id="path-1-inside-1_2342_3334" fill="white">
<path d="M23.4698 6.3323C22.569 7.94415 18.6816 11.8079 17.7809 11.9975C16.8565 12.1871 16.4772 12.4716 16.4772 12.9456C16.4772 13.2775 16.6668 13.4197 17.1883 13.4671C18.1365 13.5856 18.3498 13.8227 18.0179 14.4627C17.7335 14.9842 17.7572 14.9842 18.3972 14.8419C20.0327 14.4627 20.815 14.4153 20.9572 14.676C21.1942 15.0316 20.1276 15.4108 18.3261 15.6479C16.7142 15.8612 12.969 17.4493 13.1824 17.8286C13.4431 18.2553 14.415 18.4686 16.335 18.516C17.3779 18.5634 18.255 18.6819 18.255 18.7767C18.255 18.8716 18.0179 19.1086 17.7335 19.2982C17.2357 19.6064 16.9039 19.7012 15.2446 20.0567C14.9365 20.1042 14.6994 20.2938 14.6994 20.4834C14.6994 20.673 14.3439 20.839 13.775 20.9338C12.6846 21.076 11.5705 21.5738 11.4283 21.9767C11.3572 22.2138 11.7602 22.2849 12.8979 22.2849C14.2727 22.2849 14.5098 22.356 15.2209 22.996C15.8609 23.5886 16.1927 23.7071 17.1409 23.7071C17.7809 23.7071 18.5157 23.5886 18.7765 23.4464C19.2031 23.2093 19.369 23.2567 19.7246 23.7071C19.9616 23.9916 20.1513 24.2997 20.1513 24.3945C20.1513 24.5842 14.5809 26.0538 12.2105 26.4805C9.79275 26.9071 7.82534 27.7842 7.82534 28.4005C7.82534 29.0405 8.44164 29.2301 9.38979 28.9219C10.0298 28.7086 10.2905 28.7323 10.7409 29.0405C11.1913 29.3249 11.6653 29.3723 12.8505 29.2538C14.2253 29.1116 14.5572 29.1827 15.8372 29.7516C17.8283 30.6286 18.1602 31.079 16.6668 30.7708C16.0268 30.6523 15.0076 30.6286 14.3676 30.6997C12.9453 30.8656 11.452 31.4582 11.7602 31.7427C11.8787 31.8375 12.9453 32.0508 14.1542 32.2167C15.3631 32.359 16.5009 32.5486 16.6905 32.6197C17.4965 32.9279 16.9987 33.1649 15.2446 33.2834C14.2253 33.3545 12.3765 33.5205 11.1439 33.6627C9.91127 33.8049 8.41793 33.8997 7.84905 33.8997C6.94831 33.8997 6.47423 34.113 4.45942 35.4642C3.17942 36.3175 2.13645 37.1708 2.13645 37.3367C2.13645 37.8108 3.03719 37.9293 5.36016 37.7871C7.13793 37.6449 7.65942 37.6923 8.39423 38.0479C9.12905 38.4034 9.72164 38.4508 11.9261 38.356C16.0979 38.1901 16.4535 38.4982 13.3957 39.636C11.855 40.1812 11.2861 40.2997 10.3616 40.1575C9.38979 40.039 9.12905 40.0864 8.70238 40.4893C8.41793 40.7738 7.75423 41.153 7.23275 41.3664C5.57349 42.0301 5.21793 42.2671 5.21793 42.7175C5.21793 43.0967 5.36016 43.1442 6.82979 43.0019C9.27127 42.7649 13.7513 43.6419 13.7513 44.353C13.7513 44.4716 13.1587 44.5664 12.4713 44.5664C11.7602 44.5664 10.3379 44.8271 9.31868 45.1353C8.29942 45.4434 6.35571 45.9412 4.9809 46.2256C1.70979 46.913 -0.0442875 47.5767 0.0505273 48.0745C0.145342 48.596 1.66238 48.7856 5.81053 48.8093C7.51719 48.833 9.03423 48.9279 9.22386 49.0464C9.67423 49.3308 7.94386 50.4923 7.06682 50.4923C6.45053 50.4923 5.97645 51.156 6.2609 51.6538C6.47423 51.9619 11.5705 52.1042 13.1113 51.8434C14.6757 51.559 17.0224 51.8908 18.6105 52.6493C20.412 53.479 21.7157 56.5368 21.0994 58.4568C20.9335 58.9545 20.6016 59.6656 20.3409 60.0449C19.772 60.8508 19.8905 60.8508 22.569 60.2108C23.6594 59.9501 24.8683 59.7368 25.2713 59.7368C25.7453 59.7368 26.0772 59.5945 26.172 59.3575C26.2905 59.0256 26.3853 59.0493 27.0727 59.4286C27.4994 59.6656 27.9024 59.9264 27.9972 60.0212C28.0683 60.1397 28.6372 60.2819 29.2772 60.3768C30.3439 60.519 30.415 60.4953 30.2253 60.0686C29.6327 58.6938 29.3483 56.2997 29.5853 54.8301C29.9409 52.7205 31.3157 50.9901 31.8846 51.9145C31.9557 52.033 32.5483 52.1516 33.1883 52.1516C34.3024 52.1516 34.3972 52.1042 34.7053 51.3693C35.1794 50.2553 36.0802 49.5205 37.1942 49.3782C38.0239 49.2597 38.2372 49.3308 38.8772 49.9945C39.6357 50.753 39.9676 50.8242 41.1765 50.5871C41.8402 50.4449 41.9113 50.3264 42.2668 48.6197C42.5039 47.6242 42.8831 46.4153 43.1439 45.9175C43.4046 45.4434 43.6179 44.9456 43.6179 44.8271C43.6179 44.7086 43.0016 44.519 42.2668 44.4242C40.6787 44.2345 41.1053 43.9027 42.9779 43.879C43.9498 43.8553 44.2342 43.7367 45.1587 42.8834C45.7513 42.3382 46.1542 41.8167 46.0831 41.6982C46.012 41.5797 45.609 41.4849 45.2061 41.4849C44.7794 41.4849 43.9735 41.2479 43.3809 40.9871C42.7883 40.7264 41.3187 40.2997 40.1098 40.0627C38.9009 39.8256 37.5735 39.4464 37.1468 39.2093C36.6016 38.9249 35.7483 38.8064 33.9705 38.7827C32.5009 38.759 31.4342 38.6405 31.2683 38.4745C30.9127 38.119 32.809 37.9056 35.4402 37.9767C37.9765 38.0479 41.0816 37.6212 42.6698 36.9812C43.7602 36.5545 44.2342 36.4834 45.5853 36.6019C46.7231 36.6967 47.4105 36.6493 48.0031 36.4123C48.809 36.0805 49.1646 35.3219 48.5246 35.3219C48.3587 35.3219 47.5053 34.8953 46.6283 34.3738C45.775 33.8523 44.8268 33.4256 44.5187 33.4256C44.2105 33.4256 43.4994 33.1886 42.9068 32.9279C42.3142 32.6671 41.2002 32.3827 40.4179 32.3116C39.0668 32.193 36.9809 31.7901 35.0372 31.2686C33.2831 30.8182 34.4209 29.7042 36.412 29.9412C37.1705 30.0123 38.1661 29.8938 39.3276 29.5856C40.3231 29.3249 41.6742 29.0405 42.3142 28.9456C43.3098 28.8271 43.5231 28.7086 43.5705 28.2582C43.6179 27.9027 43.5231 27.7367 43.2624 27.7367C43.049 27.7367 42.1246 27.4049 41.2002 27.0256C40.2994 26.6227 39.2565 26.3145 38.9009 26.3145C38.569 26.3145 37.9765 26.1249 37.5735 25.8879C37.1942 25.6508 36.0327 25.153 35.0135 24.7975C33.4016 24.2049 32.9039 24.1338 31.2683 24.2286C30.249 24.2997 29.3957 24.2523 29.3957 24.1575C29.3957 23.873 30.2727 23.7308 31.5765 23.7782C32.9039 23.8256 33.5913 23.3753 32.6905 23.0197C32.2639 22.8301 32.3824 22.8064 33.1883 22.9486C35.2268 23.2805 37.4076 23.0908 36.9572 22.6642C36.8861 22.593 35.9379 22.2849 34.8476 21.953C32.8327 21.3605 32.8327 21.3605 33.9705 21.3605C34.5868 21.3367 35.772 21.1945 36.5779 21.0049C37.3839 20.8153 38.332 20.6019 38.7113 20.5071C39.1379 20.436 39.3513 20.2227 39.3513 19.9382C39.3513 19.3693 38.0713 18.8479 36.1987 18.6108C34.0653 18.3501 34.1602 18.0419 36.5305 17.6627C37.289 17.5442 38.1661 16.9516 37.9053 16.7382C37.6446 16.5249 31.0313 15.1264 29.7276 15.0079C27.9735 14.8419 27.6416 14.3916 29.3483 14.5101C30.3676 14.5812 30.4624 14.5338 30.4387 14.0597C30.4387 13.6093 30.5809 13.5145 31.4579 13.3723C32.8565 13.159 32.8565 12.519 31.4342 11.879C30.6046 11.5234 30.3676 11.2864 30.2965 10.7649C30.249 10.2671 30.0594 10.0538 29.5379 9.93526C28.6609 9.69823 27.1676 8.2523 26.3616 6.87749C25.0105 4.50711 24.5365 4.4123 23.4698 6.3323Z"/>
</mask>
<path d="M23.4698 6.3323C22.569 7.94415 18.6816 11.8079 17.7809 11.9975C16.8565 12.1871 16.4772 12.4716 16.4772 12.9456C16.4772 13.2775 16.6668 13.4197 17.1883 13.4671C18.1365 13.5856 18.3498 13.8227 18.0179 14.4627C17.7335 14.9842 17.7572 14.9842 18.3972 14.8419C20.0327 14.4627 20.815 14.4153 20.9572 14.676C21.1942 15.0316 20.1276 15.4108 18.3261 15.6479C16.7142 15.8612 12.969 17.4493 13.1824 17.8286C13.4431 18.2553 14.415 18.4686 16.335 18.516C17.3779 18.5634 18.255 18.6819 18.255 18.7767C18.255 18.8716 18.0179 19.1086 17.7335 19.2982C17.2357 19.6064 16.9039 19.7012 15.2446 20.0567C14.9365 20.1042 14.6994 20.2938 14.6994 20.4834C14.6994 20.673 14.3439 20.839 13.775 20.9338C12.6846 21.076 11.5705 21.5738 11.4283 21.9767C11.3572 22.2138 11.7602 22.2849 12.8979 22.2849C14.2727 22.2849 14.5098 22.356 15.2209 22.996C15.8609 23.5886 16.1927 23.7071 17.1409 23.7071C17.7809 23.7071 18.5157 23.5886 18.7765 23.4464C19.2031 23.2093 19.369 23.2567 19.7246 23.7071C19.9616 23.9916 20.1513 24.2997 20.1513 24.3945C20.1513 24.5842 14.5809 26.0538 12.2105 26.4805C9.79275 26.9071 7.82534 27.7842 7.82534 28.4005C7.82534 29.0405 8.44164 29.2301 9.38979 28.9219C10.0298 28.7086 10.2905 28.7323 10.7409 29.0405C11.1913 29.3249 11.6653 29.3723 12.8505 29.2538C14.2253 29.1116 14.5572 29.1827 15.8372 29.7516C17.8283 30.6286 18.1602 31.079 16.6668 30.7708C16.0268 30.6523 15.0076 30.6286 14.3676 30.6997C12.9453 30.8656 11.452 31.4582 11.7602 31.7427C11.8787 31.8375 12.9453 32.0508 14.1542 32.2167C15.3631 32.359 16.5009 32.5486 16.6905 32.6197C17.4965 32.9279 16.9987 33.1649 15.2446 33.2834C14.2253 33.3545 12.3765 33.5205 11.1439 33.6627C9.91127 33.8049 8.41793 33.8997 7.84905 33.8997C6.94831 33.8997 6.47423 34.113 4.45942 35.4642C3.17942 36.3175 2.13645 37.1708 2.13645 37.3367C2.13645 37.8108 3.03719 37.9293 5.36016 37.7871C7.13793 37.6449 7.65942 37.6923 8.39423 38.0479C9.12905 38.4034 9.72164 38.4508 11.9261 38.356C16.0979 38.1901 16.4535 38.4982 13.3957 39.636C11.855 40.1812 11.2861 40.2997 10.3616 40.1575C9.38979 40.039 9.12905 40.0864 8.70238 40.4893C8.41793 40.7738 7.75423 41.153 7.23275 41.3664C5.57349 42.0301 5.21793 42.2671 5.21793 42.7175C5.21793 43.0967 5.36016 43.1442 6.82979 43.0019C9.27127 42.7649 13.7513 43.6419 13.7513 44.353C13.7513 44.4716 13.1587 44.5664 12.4713 44.5664C11.7602 44.5664 10.3379 44.8271 9.31868 45.1353C8.29942 45.4434 6.35571 45.9412 4.9809 46.2256C1.70979 46.913 -0.0442875 47.5767 0.0505273 48.0745C0.145342 48.596 1.66238 48.7856 5.81053 48.8093C7.51719 48.833 9.03423 48.9279 9.22386 49.0464C9.67423 49.3308 7.94386 50.4923 7.06682 50.4923C6.45053 50.4923 5.97645 51.156 6.2609 51.6538C6.47423 51.9619 11.5705 52.1042 13.1113 51.8434C14.6757 51.559 17.0224 51.8908 18.6105 52.6493C20.412 53.479 21.7157 56.5368 21.0994 58.4568C20.9335 58.9545 20.6016 59.6656 20.3409 60.0449C19.772 60.8508 19.8905 60.8508 22.569 60.2108C23.6594 59.9501 24.8683 59.7368 25.2713 59.7368C25.7453 59.7368 26.0772 59.5945 26.172 59.3575C26.2905 59.0256 26.3853 59.0493 27.0727 59.4286C27.4994 59.6656 27.9024 59.9264 27.9972 60.0212C28.0683 60.1397 28.6372 60.2819 29.2772 60.3768C30.3439 60.519 30.415 60.4953 30.2253 60.0686C29.6327 58.6938 29.3483 56.2997 29.5853 54.8301C29.9409 52.7205 31.3157 50.9901 31.8846 51.9145C31.9557 52.033 32.5483 52.1516 33.1883 52.1516C34.3024 52.1516 34.3972 52.1042 34.7053 51.3693C35.1794 50.2553 36.0802 49.5205 37.1942 49.3782C38.0239 49.2597 38.2372 49.3308 38.8772 49.9945C39.6357 50.753 39.9676 50.8242 41.1765 50.5871C41.8402 50.4449 41.9113 50.3264 42.2668 48.6197C42.5039 47.6242 42.8831 46.4153 43.1439 45.9175C43.4046 45.4434 43.6179 44.9456 43.6179 44.8271C43.6179 44.7086 43.0016 44.519 42.2668 44.4242C40.6787 44.2345 41.1053 43.9027 42.9779 43.879C43.9498 43.8553 44.2342 43.7367 45.1587 42.8834C45.7513 42.3382 46.1542 41.8167 46.0831 41.6982C46.012 41.5797 45.609 41.4849 45.2061 41.4849C44.7794 41.4849 43.9735 41.2479 43.3809 40.9871C42.7883 40.7264 41.3187 40.2997 40.1098 40.0627C38.9009 39.8256 37.5735 39.4464 37.1468 39.2093C36.6016 38.9249 35.7483 38.8064 33.9705 38.7827C32.5009 38.759 31.4342 38.6405 31.2683 38.4745C30.9127 38.119 32.809 37.9056 35.4402 37.9767C37.9765 38.0479 41.0816 37.6212 42.6698 36.9812C43.7602 36.5545 44.2342 36.4834 45.5853 36.6019C46.7231 36.6967 47.4105 36.6493 48.0031 36.4123C48.809 36.0805 49.1646 35.3219 48.5246 35.3219C48.3587 35.3219 47.5053 34.8953 46.6283 34.3738C45.775 33.8523 44.8268 33.4256 44.5187 33.4256C44.2105 33.4256 43.4994 33.1886 42.9068 32.9279C42.3142 32.6671 41.2002 32.3827 40.4179 32.3116C39.0668 32.193 36.9809 31.7901 35.0372 31.2686C33.2831 30.8182 34.4209 29.7042 36.412 29.9412C37.1705 30.0123 38.1661 29.8938 39.3276 29.5856C40.3231 29.3249 41.6742 29.0405 42.3142 28.9456C43.3098 28.8271 43.5231 28.7086 43.5705 28.2582C43.6179 27.9027 43.5231 27.7367 43.2624 27.7367C43.049 27.7367 42.1246 27.4049 41.2002 27.0256C40.2994 26.6227 39.2565 26.3145 38.9009 26.3145C38.569 26.3145 37.9765 26.1249 37.5735 25.8879C37.1942 25.6508 36.0327 25.153 35.0135 24.7975C33.4016 24.2049 32.9039 24.1338 31.2683 24.2286C30.249 24.2997 29.3957 24.2523 29.3957 24.1575C29.3957 23.873 30.2727 23.7308 31.5765 23.7782C32.9039 23.8256 33.5913 23.3753 32.6905 23.0197C32.2639 22.8301 32.3824 22.8064 33.1883 22.9486C35.2268 23.2805 37.4076 23.0908 36.9572 22.6642C36.8861 22.593 35.9379 22.2849 34.8476 21.953C32.8327 21.3605 32.8327 21.3605 33.9705 21.3605C34.5868 21.3367 35.772 21.1945 36.5779 21.0049C37.3839 20.8153 38.332 20.6019 38.7113 20.5071C39.1379 20.436 39.3513 20.2227 39.3513 19.9382C39.3513 19.3693 38.0713 18.8479 36.1987 18.6108C34.0653 18.3501 34.1602 18.0419 36.5305 17.6627C37.289 17.5442 38.1661 16.9516 37.9053 16.7382C37.6446 16.5249 31.0313 15.1264 29.7276 15.0079C27.9735 14.8419 27.6416 14.3916 29.3483 14.5101C30.3676 14.5812 30.4624 14.5338 30.4387 14.0597C30.4387 13.6093 30.5809 13.5145 31.4579 13.3723C32.8565 13.159 32.8565 12.519 31.4342 11.879C30.6046 11.5234 30.3676 11.2864 30.2965 10.7649C30.249 10.2671 30.0594 10.0538 29.5379 9.93526C28.6609 9.69823 27.1676 8.2523 26.3616 6.87749C25.0105 4.50711 24.5365 4.4123 23.4698 6.3323Z" fill="#F5ECE9" stroke="#F5ECE9" stroke-width="0.0474074" mask="url(#path-1-inside-1_2342_3334)"/>
<path d="M139.864 30.0186L138.632 30.7529C136.97 31.7497 135.475 32.1062 133.387 31.9639C131.335 31.8097 129.66 31.2164 128.378 30.1924C127.096 29.1684 126.206 27.7141 125.72 25.8398V25.8389C125.257 24.0114 125.393 22.0004 125.995 20.2061C126.597 18.4116 127.665 16.8329 129.066 15.8711C130.633 14.8031 131.939 14.3997 133.933 14.376C136.045 14.3523 137.683 14.851 139.438 16.0137L140.639 16.8379L142.149 15.3506C142.564 14.9479 142.937 14.5452 143.206 14.2256C143.341 14.0658 143.45 13.9271 143.524 13.8193C143.562 13.7655 143.591 13.7193 143.61 13.6826C143.62 13.6645 143.627 13.6489 143.632 13.6357C143.637 13.6225 143.639 13.6123 143.639 13.6055C143.639 13.5181 143.582 13.4058 143.474 13.2744C143.366 13.1435 143.208 12.9953 143.012 12.8359C142.619 12.5172 142.071 12.1542 141.452 11.7959C140.214 11.0792 138.692 10.3809 137.556 10.085C136.692 9.86025 135.271 9.75385 133.85 9.75977C132.428 9.76569 131.006 9.88359 130.143 10.1084C127.167 10.9078 124.921 12.3939 123.306 14.6445L122.991 15.1055C121.594 17.1896 120.978 18.9655 120.623 21.666C119.889 27.5642 122.399 32.9629 126.921 35.1885C129.337 36.3727 131.563 36.7994 134.762 36.6572C136.621 36.5743 138.119 36.3014 139.495 35.748C140.871 35.1946 142.127 34.3606 143.501 33.1523L144.351 32.4209V21.1074H133.233V25.5879H139.87V30.0078H139.882L139.864 30.0186Z" fill="#F5ECE9" stroke="#F5ECE9" stroke-width="0.0237037"/>
<path d="M98.5986 36.2539V14.9209H106.657V10.4404H85.3477V14.9209H93.4072V36.2539H98.5986Z" fill="#F5ECE9" stroke="#F5ECE9" stroke-width="0.0237037"/>
<path d="M115.669 36.2539V10.4404H110.715V36.2539H115.669Z" fill="#F5ECE9" stroke="#F5ECE9" stroke-width="0.0237037"/>
<path d="M169.003 36.2539V31.2998H154.544V25.5869H168.529V20.8701H154.544V15.1572H169.003V10.4404H149.59V36.2539H169.003Z" fill="#F5ECE9" stroke="#F5ECE9" stroke-width="0.0237037"/>
<path d="M179.435 36.2539V27.7207H181.888L184.306 27.7441V27.7383L184.314 27.748L187.989 31.9912L191.66 36.2539H194.451C195.696 36.2539 196.388 36.2417 196.77 36.1826C196.96 36.1531 197.07 36.1119 197.133 36.0566C197.195 36.0021 197.213 35.9322 197.213 35.8389C197.213 35.8284 197.207 35.8102 197.194 35.7832C197.182 35.7566 197.163 35.7227 197.139 35.6826C197.09 35.6024 197.017 35.4963 196.924 35.3682C196.737 35.1118 196.467 34.7664 196.134 34.3564C195.467 33.5359 194.548 32.457 193.541 31.3193C192.534 30.1935 191.615 29.156 190.948 28.3945C190.615 28.014 190.345 27.702 190.158 27.4824C190.065 27.3726 189.992 27.2855 189.942 27.2246C189.918 27.1943 189.899 27.1705 189.886 27.1533C189.879 27.1447 189.875 27.1372 189.871 27.1318C189.87 27.1294 189.868 27.1271 189.867 27.125C189.867 27.1239 189.866 27.1223 189.865 27.1211C189.865 27.12 189.864 27.1183 189.864 27.1162C189.864 27.1107 189.868 27.1068 189.869 27.1055C189.871 27.1035 189.873 27.1013 189.875 27.0996C189.88 27.0962 189.887 27.0922 189.895 27.0879C189.91 27.0792 189.934 27.0679 189.963 27.0547C190.022 27.0279 190.108 26.9926 190.213 26.9512C190.423 26.8681 190.714 26.761 191.034 26.6543C192.904 26.039 194.229 24.8799 195.128 23.0576C195.495 22.311 195.69 21.8675 195.793 21.3359C195.896 20.8039 195.909 20.1826 195.909 19.0801C195.909 17.9779 195.896 17.3571 195.793 16.8281C195.715 16.4317 195.587 16.0866 195.372 15.6289L195.128 15.127C194.205 13.2333 192.737 11.8609 190.844 11.1035C190.205 10.8432 189.791 10.7069 188.64 10.627C187.488 10.547 185.598 10.5238 182.007 10.4883L174.48 10.418V36.2539H179.435ZM179.435 15.1572H183.713C185.609 15.1572 186.706 15.1691 187.43 15.2344C188.154 15.2997 188.506 15.4186 188.91 15.6328C190.289 16.3345 190.967 17.7494 190.952 19.1455C190.937 20.5418 190.23 21.9214 188.838 22.5518C188.005 22.9323 187.244 23.0029 183.666 23.0029H179.435V15.1572Z" fill="#F5ECE9" stroke="#F5ECE9" stroke-width="0.0237037"/>
<path d="M218.154 36.2061L220.304 36.1357L221.794 32.3496C222.6 30.2638 223.833 26.8512 224.496 24.7656C224.828 23.7226 225.148 22.7504 225.394 22.0244C225.517 21.6614 225.621 21.3598 225.699 21.1416C225.738 21.0327 225.771 20.9446 225.796 20.8799C225.82 20.8176 225.838 20.7758 225.848 20.7588V20.7578C225.851 20.752 225.855 20.7461 225.861 20.7432C225.868 20.7402 225.876 20.7417 225.882 20.7441C225.893 20.7487 225.905 20.7596 225.917 20.7744C225.941 20.805 225.972 20.8582 226.009 20.9307C226.082 21.0763 226.18 21.3043 226.296 21.5947C226.527 22.1756 226.829 23.0111 227.149 23.959C227.766 25.8313 229.046 29.3633 229.994 31.8047L231.722 36.2539H235.995L240.117 24.8125C242.369 18.5311 244.478 12.7233 244.786 11.8936L245.325 10.417L242.451 10.4873L239.544 10.5586L236.726 19.5107L233.882 28.4707L233.871 28.5049L233.859 28.4707L232.152 23.54C231.228 20.8378 229.829 16.7844 229.047 14.5801L227.651 10.5586H224.184L221.177 19.4395H221.176C219.884 23.2318 219.12 25.4307 218.651 26.6191C218.417 27.213 218.257 27.5565 218.142 27.7197C218.113 27.7604 218.086 27.7905 218.062 27.8105C218.037 27.8305 218.013 27.8415 217.99 27.8418C217.967 27.8419 217.946 27.8308 217.929 27.8125C217.92 27.8034 217.912 27.7922 217.904 27.7793L217.883 27.7363C217.764 27.4043 216.46 23.3743 214.967 18.7998L212.268 10.4404H206.486L206.74 11.0635V11.0645C206.978 11.7066 215.273 34.2435 215.771 35.6211L216.006 36.2773L218.154 36.2061Z" fill="#F5ECE9" stroke="#F5ECE9" stroke-width="0.0237037"/>
<path d="M268.315 36.2539V31.2998H254.094V25.5869H267.842V20.8701H254.094V15.1572H268.315V10.4404H248.902V36.2539H268.315Z" fill="#F5ECE9" stroke="#F5ECE9" stroke-width="0.0237037"/>
<path d="M273.616 36.2539H276.311L277.397 33.8193L278.488 31.4014L278.473 31.3945H278.499L285.089 31.3467L291.678 31.2764L291.679 31.2881L291.678 31.2578L291.689 31.2832L292.756 33.7246L293.842 36.1367L296.633 36.2061C297.735 36.2298 298.428 36.2298 298.833 36.1943C299.036 36.1766 299.165 36.1502 299.237 36.1143C299.273 36.0964 299.294 36.077 299.303 36.0566C299.307 36.0465 299.309 36.0354 299.309 36.0234L299.3 35.9854V35.9844C299.297 35.9749 299.284 35.9434 299.262 35.8896C299.239 35.8362 299.207 35.7614 299.166 35.667C299.084 35.4781 298.966 35.2093 298.816 34.8701C298.517 34.1916 298.089 33.2298 297.566 32.0566C296.521 29.7101 295.093 26.5162 293.54 23.0439L287.878 10.4404H282.3L281.876 11.4287C281.639 11.9978 279.078 17.7103 276.187 24.1338C274.752 27.3456 273.443 30.2912 272.492 32.4482C272.017 33.5268 271.63 34.4081 271.363 35.0273C271.23 35.3368 271.126 35.5807 271.056 35.751C271.02 35.8361 270.994 35.903 270.976 35.9502C270.967 35.9736 270.961 35.9923 270.956 36.0059C270.954 36.0126 270.952 36.0184 270.951 36.0225C270.951 36.0244 270.949 36.0262 270.949 36.0273V36.0283C270.949 36.033 270.952 36.0388 270.959 36.0459C270.966 36.0531 270.977 36.0616 270.993 36.0693C271.025 36.0849 271.075 36.0999 271.139 36.1143C271.267 36.143 271.455 36.1678 271.691 36.1885C272.165 36.2299 272.834 36.2539 273.616 36.2539ZM285.112 26.5586C283.868 26.5586 282.753 26.5356 281.956 26.4971C281.558 26.4778 281.238 26.4543 281.021 26.4287C280.912 26.416 280.829 26.4028 280.774 26.3887C280.747 26.3817 280.726 26.3742 280.712 26.3662C280.705 26.3623 280.699 26.3573 280.695 26.3516C280.691 26.3455 280.69 26.3383 280.692 26.3311V26.3301C280.989 25.5355 282.079 23.0517 283.104 20.7793C283.617 19.643 284.114 18.5594 284.486 17.7656C284.673 17.3688 284.827 17.0436 284.938 16.8213C284.994 16.7104 285.039 16.6249 285.07 16.5684C285.086 16.5402 285.1 16.5185 285.109 16.5049C285.114 16.4984 285.118 16.4927 285.122 16.4893C285.124 16.4876 285.127 16.4854 285.131 16.4844C285.133 16.4839 285.136 16.4835 285.139 16.4844C285.142 16.4853 285.143 16.4882 285.145 16.4902C285.146 16.4914 285.148 16.4919 285.149 16.4932C285.151 16.4953 285.153 16.498 285.155 16.501C285.16 16.5072 285.165 16.5153 285.171 16.5254C285.183 16.5458 285.197 16.5749 285.216 16.6113C285.253 16.6842 285.304 16.7885 285.366 16.9209C285.491 17.1858 285.663 17.5628 285.87 18.0234C286.285 18.945 286.842 20.2015 287.446 21.5645L289.627 26.542L289.634 26.5586H285.112Z" fill="#F5ECE9" stroke="#F5ECE9" stroke-width="0.0237037"/>
<path d="M320.943 36.2539V31.5371H307.906V10.4404H302.715V36.2539H320.943Z" fill="#F5ECE9" stroke="#F5ECE9" stroke-width="0.0237037"/>
<path d="M332.322 36.2539V14.9209H340.381V10.4404H319.309V14.9209H327.368V36.2539H332.322Z" fill="#F5ECE9" stroke="#F5ECE9" stroke-width="0.0237037"/>
<path d="M349.388 36.2539V25.8242H361.737V36.2539H366.691V10.4404H361.737V21.1074H349.388V10.4404H344.434V36.2539H349.388Z" fill="#F5ECE9" stroke="#F5ECE9" stroke-width="0.0237037"/>
<mask id="path-13-inside-2_2342_3334" fill="white">
<path d="M70.0693 31.8093C69.8559 32.0938 69.69 32.7337 69.69 33.2078C69.69 33.9426 69.5715 34.1086 69.0263 34.3456C68.3389 34.63 66.1344 36.6449 66.1344 37.0004C66.1344 37.0952 65.5893 37.356 64.9493 37.5693C64.2856 37.7826 63.1952 38.3989 62.5078 38.9441C61.6544 39.6315 61.0856 39.8923 60.6589 39.8449C60.3033 39.8212 59.9478 39.8923 59.8767 40.0345C59.7818 40.1767 59.5211 40.2004 59.1656 40.0582C58.8574 39.9634 57.6959 39.8449 56.5581 39.8449L54.5196 39.8212L54.4722 40.4849C54.4485 40.8404 54.4011 41.6463 54.4011 42.31C54.3063 45.036 54.2826 45.2967 54.0456 45.1545C53.9033 45.0597 53.8085 45.2967 53.7848 45.676C53.7848 46.2686 53.7611 46.2923 53.5715 45.8656C53.1685 44.8937 53.453 42.1204 54.1641 40.4612C54.33 40.0819 54.2352 40.0345 53.3107 40.1056C52.3152 40.1767 52.2915 40.2004 51.9833 41.3619C51.8174 42.0019 51.6752 42.8078 51.6752 43.116C51.6752 43.6375 51.6989 43.6612 51.9833 43.3056C52.2204 42.95 52.2678 43.1397 52.2915 44.3723L52.3152 45.8656L52.0544 44.9175C51.8411 44.1589 51.7463 44.0641 51.6041 44.396C51.3433 45.0597 51.4144 47.3589 51.6752 47.9515C51.8174 48.236 51.5567 48.07 51.0826 47.5486C50.1107 46.4582 49.5418 44.7515 49.5656 43.0449L49.5893 41.836L49.8974 43.2582C50.0396 44.0404 50.3004 44.9412 50.4426 45.273C50.6796 45.7945 50.7033 45.7234 50.7033 44.6093C50.727 43.9219 50.9404 42.713 51.2011 41.9308C51.4855 41.1249 51.6752 40.4612 51.6278 40.4137C51.5804 40.39 51.2011 40.4612 50.7981 40.5797C50.2293 40.7219 50.0159 40.9352 49.9922 41.3145C49.9685 41.7175 49.9448 41.7412 49.85 41.4093C49.7078 40.8641 49.1152 41.03 47.4796 42.1204C45.9863 43.0923 45.0381 44.1826 45.0381 44.8463C45.0381 45.1308 44.967 45.273 44.8722 45.2019C44.6352 44.9649 43.5448 46.9086 43.7107 47.3115C43.7818 47.4775 43.7581 47.6434 43.6396 47.6434C43.5448 47.6434 43.2841 48.473 43.0707 49.4686C42.6915 51.1752 42.6915 51.3175 43.0944 51.7678C43.4737 52.2419 43.4737 52.2419 43.0944 51.9337C42.6204 51.5782 42.5018 51.7441 42.3833 52.8582C42.3359 53.19 42.17 53.593 42.0278 53.7589C41.8618 53.9249 41.7196 54.2093 41.7196 54.3515C41.7196 54.636 40.0841 55.4656 39.5152 55.4656C39.373 55.4656 38.8515 55.2286 38.4011 54.9204C37.287 54.2093 37.1211 53.0004 38.0218 52.1945C38.733 51.6019 38.8041 51.1515 38.2589 50.63C37.8322 50.2034 37.1448 50.1323 36.4811 50.4878C35.2011 51.1989 34.8693 54.233 35.9359 55.8212C36.9789 57.433 37.5478 57.7175 39.7522 57.7175C41.5537 57.7175 41.7433 57.67 42.5967 56.9826C43.853 55.9634 44.5167 54.636 45.0381 52.0997L45.4648 49.8952L45.4885 51.8389C45.5122 53.9486 45.3226 54.636 44.3981 56.0108L43.7581 56.9115L44.1848 59.0923C44.9196 62.9797 44.9196 62.8375 44.2085 61.6523C43.3315 60.1589 41.6722 59.0212 40.3685 59.0212C39.7759 59.0212 39.7996 59.0686 40.7952 59.6849C41.3641 60.0641 42.0041 60.5619 42.1937 60.8226C42.5256 61.2493 42.5256 61.2493 42.0752 60.8937C41.4589 60.3723 39.9655 59.9219 39.3018 60.0167C38.8278 60.0878 38.8989 60.1826 39.7759 60.633C40.3211 60.9175 40.7715 61.2019 40.7715 61.2493C40.7715 61.2967 40.3211 61.2967 39.7759 61.2256C38.7804 61.1308 38.7804 61.1308 39.3493 61.4626L39.9181 61.8182L39.3493 61.913C39.0174 61.9604 38.3774 61.913 37.927 61.7945C37.4767 61.6997 35.0352 61.5337 32.5463 61.4389C29.4648 61.3204 27.8767 61.1545 27.687 60.9649C27.5211 60.7989 27.213 60.6804 26.9759 60.6804C26.7389 60.6804 26.5492 60.5145 26.5492 60.3249C26.5492 60.1352 26.3833 59.9693 26.1937 59.9693C25.9804 59.9693 25.9093 60.1115 25.9804 60.3249C26.0989 60.5856 25.9567 60.6804 25.53 60.6804C25.1981 60.6804 23.6811 60.9412 22.1641 61.273C19.3433 61.8893 18.087 62.0552 16.0722 62.1263C15.4559 62.15 14.9344 62.2686 14.9344 62.3871C14.9344 62.4819 13.773 62.5767 12.327 62.5767C10.9048 62.5767 9.17443 62.7189 8.48703 62.8849C7.42036 63.1219 9.83814 63.193 23.9418 63.3115C33.1389 63.4063 44.8722 63.5723 50.0159 63.7145C62.413 64.07 81.2811 63.6434 80.3093 63.0271C80.1433 62.9086 79.1715 62.8137 78.1522 62.8137C76.0426 62.8137 75.8767 62.5767 77.4174 61.676L78.3419 61.1308L77.2278 61.2019C75.8767 61.2967 76.0426 60.9886 77.8204 60.0878L79.053 59.4478L77.6781 59.5426C76.7537 59.6137 76.09 59.8271 75.6159 60.1826C75.213 60.4671 74.9048 60.6093 74.9048 60.4908C74.9048 60.1589 77.1093 58.1678 77.9389 57.7412C78.9344 57.2197 78.887 57.03 77.8204 57.2434C76.5167 57.4804 74.8811 58.2389 74.0989 58.9737L73.4115 59.6137L73.8618 58.8315C74.4307 57.8597 76.1374 56.0819 77.0619 55.5367C77.9626 54.9915 77.9389 54.7545 76.9907 54.9678C74.8574 55.4656 72.7241 57.2197 71.7759 59.2582C71.2544 60.3486 70.8752 60.7515 70.8752 60.1826C70.8752 60.0641 71.1833 58.6893 71.5626 57.1723C71.9418 55.6552 72.3922 53.7589 72.5344 52.9767C72.7004 52.1945 73.0796 51.2463 73.3878 50.8434C74.1463 49.8478 74.6678 48.2834 74.6678 47.0271C74.6678 46.4819 74.7626 45.9604 74.8811 45.8656C75.0707 45.7471 75.2604 45.0123 75.7581 42.476C75.8293 42.1915 76.1374 41.8123 76.4693 41.6463C77.0381 41.4093 77.1567 41.433 77.607 42.0256C78.0574 42.5708 78.247 42.6419 78.887 42.5234C79.7641 42.3575 80.5937 41.433 80.5937 40.6745C80.5937 40.39 80.6885 40.0582 80.8307 39.916C80.9493 39.7975 81.1152 39.1812 81.1863 38.5649C81.3285 37.4745 81.2811 37.4034 80.4515 36.6686C79.9774 36.2419 79.4796 35.7915 79.3848 35.673C78.0574 34.0849 77.6544 33.6582 77.2515 33.5397C76.9907 33.4449 76.6826 33.113 76.5404 32.7812C76.3744 32.3071 76.2085 32.2123 75.7819 32.3545C74.5967 32.71 72.5344 32.473 71.6574 31.8567C70.6144 31.1693 70.5196 31.1456 70.0693 31.8093ZM73.0085 33.4212C73.293 33.4212 73.4589 33.516 73.3641 33.6345C73.2218 33.8952 71.8944 33.516 71.6811 33.1367C71.5863 32.9945 71.7285 33.0182 72.013 33.1604C72.2737 33.3026 72.7241 33.4212 73.0085 33.4212ZM75.1181 34.0375C74.6204 34.6537 74.1937 36.0523 74.1937 37.1663C74.1937 38.8019 75.687 39.9634 76.4693 38.9204C76.9433 38.3041 76.8722 38.1382 76.1611 38.2804C75.4974 38.4226 75.4974 38.4226 76.0426 38.1145L76.5641 37.7826L75.8767 37.2612C75.3789 36.9056 75.1419 36.8345 75.0707 37.0478C74.9759 37.2375 74.9285 37.19 74.9285 36.953C74.9048 36.5737 75.3315 36.0286 75.6633 36.0286C75.7581 36.0286 75.853 36.2419 75.853 36.5026C75.853 37.2137 76.9433 37.5693 77.6544 37.0952C78.2707 36.6923 78.413 36.0286 77.8915 36.0286C77.7019 36.0286 77.3937 35.8389 77.2278 35.5782C77.0619 35.3412 76.7063 35.0804 76.4456 35.033C76.1848 34.9619 76.4219 34.9145 76.9907 34.9145C77.7967 34.8908 78.0574 35.0093 78.247 35.4123C78.3893 35.673 78.9581 36.313 79.4796 36.8108L80.4752 37.7352L79.7167 37.593C79.1004 37.4982 78.9344 37.5456 78.9344 37.83C78.9344 38.0434 79.1478 38.2567 79.4085 38.3278C79.9774 38.47 80.0248 39.1812 79.4796 39.6078C79.1715 39.8686 79.0767 39.8686 79.0056 39.6315C78.8633 39.2523 78.5078 39.276 77.1093 39.7263C75.9715 40.0819 75.9241 40.0819 75.0944 39.5367C73.9804 38.8493 73.6722 37.9723 73.8618 36.2182C74.0278 34.6537 73.8618 34.4641 73.3404 35.673C72.9611 36.6212 72.9137 38.3278 73.2456 39.2523C73.4826 39.8449 73.4589 39.8686 73.1033 39.5604C72.8663 39.3708 72.5581 38.8967 72.3922 38.4937C71.8233 37.1663 72.7478 35.0567 74.2885 34.1086C75.1893 33.5634 75.5448 33.5397 75.1181 34.0375ZM76.2085 34.4641C75.8293 34.7486 75.8056 34.8434 76.0663 35.1752C76.327 35.4834 76.327 35.5545 76.0426 35.5545C75.687 35.5545 75.1419 35.1041 75.1419 34.796C75.1419 34.6775 75.3789 34.4878 75.687 34.3693C76.4693 34.0612 76.7063 34.0849 76.2085 34.4641ZM71.7048 35.3649C70.5433 37.4034 71.1122 40.1056 72.8426 40.9115L73.6011 41.2671L72.89 41.1723C72.5107 41.1249 71.9893 40.9826 71.7285 40.8878C71.3493 40.7219 71.3256 40.7456 71.5626 41.196C71.9893 41.9782 71.8707 42.073 71.2544 41.4804C70.9226 41.196 70.5907 40.6271 70.4959 40.2241C70.4248 39.8212 70.2115 39.3471 70.0219 39.1812C69.7848 38.9204 69.7137 38.9915 69.6189 39.513C69.5478 40.0819 69.5241 40.0345 69.4767 39.3234C69.4767 38.8493 69.69 37.996 70.0219 37.356C70.4959 36.4315 70.5196 36.2656 70.1878 36.3604C69.9744 36.4315 70.33 36.0286 70.9937 35.436C71.6337 34.8434 72.1789 34.3693 72.2263 34.3693C72.25 34.3693 72.013 34.8197 71.7048 35.3649ZM65.5893 39.6789C65.2574 40.4849 65.0915 41.4804 65.0915 42.6656L65.0678 44.4434L64.57 43.4004C64.0011 42.2863 64.0248 40.9826 64.6174 40.2715C64.807 40.0819 65.0441 39.5841 65.1863 39.2049C65.3285 38.8019 65.5893 38.47 65.7552 38.47C65.9922 38.47 65.9448 38.7782 65.5893 39.6789ZM56.8426 41.7886C56.4633 42.7841 56.3922 43.4715 56.4633 45.4389L56.5344 47.8567L56.0604 46.9797C55.373 45.676 55.3967 42.6656 56.1315 41.3145C56.4633 40.6745 56.7715 40.3663 56.9848 40.4375C57.2456 40.5323 57.2218 40.793 56.8426 41.7886ZM79.6693 40.8167C79.5744 41.1012 79.2663 41.3382 79.0056 41.3619C78.65 41.3856 78.5552 41.2908 78.65 41.03C78.8159 40.5797 79.1715 40.2952 79.5744 40.2952C79.7641 40.2952 79.8115 40.4612 79.6693 40.8167ZM59.1181 41.3856C58.4307 43.0449 58.4307 45.8182 59.1418 47.9989C59.2841 48.4019 59.213 48.3782 58.81 47.8804C57.9804 46.8849 57.5063 44.8937 57.7907 43.6137C58.0041 42.713 59.1418 40.5323 59.4026 40.5323C59.45 40.5323 59.3078 40.9115 59.1181 41.3856ZM61.1093 41.8834C60.7774 42.8078 60.5878 43.8745 60.5878 45.1071L60.5641 46.9797L60.1848 46.1263C59.9715 45.6523 59.7344 45.3441 59.6159 45.4389C59.5211 45.5575 59.4974 44.9412 59.5685 44.1115C59.6396 43.116 59.8293 42.5234 60.0426 42.3812C60.2559 42.2863 60.5404 41.8123 60.6826 41.3619C60.8248 40.9115 61.1093 40.5323 61.2752 40.5323C61.5122 40.5323 61.4885 40.8404 61.1093 41.8834ZM63.0767 43.0212C63.1952 43.8982 63.5033 45.1071 63.7641 45.6997C64.1196 46.5056 64.1433 46.6715 63.8826 46.4582C63.2426 45.913 63.1952 46.4345 63.8115 47.1219C64.5463 47.9041 65.1863 49.113 65.1863 49.7056C65.1626 49.9426 65.0204 50.393 64.8307 50.7249L64.4989 51.3175L64.4752 50.5826C64.4752 50.1086 64.0959 49.2789 63.4559 48.3308C62.247 46.553 61.8678 45.5575 61.8915 44.23V43.2582L62.2707 44.0167C62.7211 44.9175 63.1715 45.0597 62.9581 44.2537C62.7211 43.353 62.5078 41.1249 62.6737 41.2671C62.7685 41.3619 62.9581 42.1441 63.0767 43.0212ZM69.5478 45.6286C70.4959 46.79 70.8989 47.5486 71.1122 48.473L71.2544 49.1841L71.6811 48.3545C72.1789 47.43 73.2218 46.2212 73.5537 46.2212C73.6722 46.2212 73.6248 46.3871 73.4589 46.6004C73.1033 47.0271 72.7004 47.7382 71.3018 50.4167C70.2115 52.4789 69.9507 52.6923 70.093 51.3649C70.1878 50.6775 70.0693 50.0375 69.7848 49.4212L69.3581 48.473L69.287 49.3026C69.2396 49.753 69.1448 50.393 69.05 50.7249C68.9078 51.2463 68.8841 51.2226 68.7418 50.3693C68.6233 49.8004 68.647 49.35 68.7893 49.2789C68.9315 49.1841 68.6944 48.5204 68.1967 47.6197C67.3433 46.0789 66.6085 43.9219 66.6085 43.0449C66.6085 42.7604 66.8456 43.0923 67.1537 43.8034C67.7937 45.3441 70.2352 48.5441 70.3537 47.9989C70.4011 47.7856 69.9981 47.0271 69.453 46.316C68.3626 44.87 67.5804 43.2819 67.5567 42.5471C67.5567 42.2863 67.8411 42.6656 68.173 43.3767C68.5048 44.0878 69.1211 45.0834 69.5478 45.6286ZM71.3967 43.5663C71.9893 44.0641 72.4159 44.6093 72.3448 44.7278C72.25 44.8937 71.7048 44.5145 70.9937 43.8271C69.5952 42.4523 69.8322 42.2863 71.3967 43.5663ZM47.053 44.7278C46.9107 45.7471 47.2426 47.9278 47.7404 49.4212C47.8115 49.6819 47.6218 49.35 47.29 48.71C46.6974 47.5249 46.5078 45.4389 46.8396 44.1352C47.1004 43.2345 47.1952 43.5663 47.053 44.7278ZM52.173 56.0345C52.007 56.556 51.8174 57.2197 51.77 57.5041C51.6752 57.836 52.0781 58.713 52.9552 60.1826C53.69 61.3678 54.2826 62.4108 54.2826 62.4582C54.2826 62.5293 54.0693 62.5767 53.8322 62.5767C53.5478 62.5767 53.287 62.316 53.1211 61.8182C52.5759 60.2537 50.6322 58.073 51.1063 59.5426C51.2485 59.993 51.1537 59.9456 50.5137 59.3056C49.5893 58.4049 49.0915 58.31 49.6604 59.1634C50.087 59.8034 49.9685 60.2537 49.4944 59.7797C49.3285 59.6137 49.0678 59.4952 48.9018 59.4952C48.6885 59.4952 48.8307 59.8745 49.3048 60.5382C49.6841 61.1308 50.0159 61.6523 50.0159 61.7234C50.0159 61.7945 49.5418 61.3915 48.973 60.8226C48.2381 60.1115 47.8589 59.5426 47.7404 58.9026C47.5744 57.9071 47.527 57.9545 49.4707 56.6034C49.9922 56.2715 50.7507 55.3708 51.2011 54.5649L52.0307 53.1426L52.2441 54.0908C52.41 54.7545 52.3863 55.3471 52.173 56.0345ZM59.3315 53.7352C60.1374 53.9486 60.8959 54.2093 61.0144 54.3041C61.2515 54.5175 62.0811 58.8315 62.0811 59.9693C62.0811 60.7752 62.0811 60.7515 61.3937 59.3293C60.73 57.9782 59.3315 56.4137 58.7626 56.4137C58.6441 56.4137 58.81 56.8878 59.1418 57.433C59.9004 58.7604 59.9004 58.9026 59.0233 58.2863C58.2411 57.6937 57.7907 57.836 58.3596 58.476C59.0944 59.353 59.0233 59.4952 58.17 58.9026C57.6959 58.5708 57.1981 58.31 57.1033 58.31C56.7715 58.31 56.8663 58.713 57.293 59.0449C57.7433 59.4241 59.0233 61.3915 59.0233 61.7234C59.0233 61.8419 58.8337 61.7708 58.6204 61.5812C58.3833 61.3915 57.933 61.1545 57.6011 61.0834C56.4396 60.7989 55.1596 57.9545 55.9656 57.4567C56.3448 57.2197 57.6011 54.47 57.6011 53.8537C57.6011 53.2375 57.4826 53.2375 59.3315 53.7352ZM70.5196 55.5841C70.2826 56.5323 69.9981 56.7219 70.1404 55.8686C70.1404 55.7737 70.0456 55.7026 69.9033 55.7026C69.7137 55.7026 69.7137 55.5841 69.927 55.3471C70.093 55.1575 70.1404 54.9915 70.0219 54.9915C69.927 54.9915 70.0456 54.8493 70.3063 54.6597C70.5433 54.47 70.7804 54.3515 70.8041 54.3752C70.8278 54.3989 70.7093 54.9441 70.5196 55.5841ZM67.0826 57.5278C67.0589 59.7797 67.0115 60.23 66.7981 59.8508C66.49 59.3293 66.2293 55.7026 66.4426 55.11C66.5374 54.9204 66.7033 54.7545 66.8456 54.7545C66.9878 54.7545 67.0826 55.7737 67.0826 57.5278ZM46.9818 57.7649C46.8633 58.3337 46.8396 58.3575 46.6974 57.9545C46.5552 57.5752 46.7448 57.1723 47.0767 57.1249C47.1004 57.1249 47.053 57.4093 46.9818 57.7649ZM47.3137 60.1589C47.5981 60.8937 47.5981 60.9412 47.2189 60.87C47.0056 60.8226 46.8159 60.6093 46.8159 60.396C46.8159 60.1826 46.6026 59.8271 46.3418 59.6137C45.8678 59.2582 45.8678 59.2345 46.413 59.3056C46.7922 59.353 47.0767 59.6375 47.3137 60.1589ZM66.8456 61.51C67.0115 61.7234 67.0589 62.0315 66.9641 62.2686C66.7981 62.6715 66.7744 62.6478 66.6559 62.2212C66.49 61.4152 66.1344 61.2256 66.1344 61.9367C66.1344 62.6715 65.6841 62.79 65.4944 62.1026C65.4233 61.8419 65.2811 61.6286 65.1863 61.6286C65.0915 61.6286 64.9493 61.8419 64.8781 62.1026C64.7122 62.7189 64.2381 62.7189 64.0722 62.1026C64.0011 61.8419 63.8589 61.6286 63.7404 61.6286C63.6218 61.6286 63.527 61.8419 63.527 62.1026C63.527 62.3634 63.4085 62.5767 63.29 62.5767C62.9581 62.5767 62.7211 61.9604 62.9107 61.51C63.1004 61.0123 66.4189 61.0123 66.8456 61.51ZM70.97 61.5337C71.4441 61.7234 71.4678 62.3397 70.9937 62.3397C70.8041 62.3397 70.6381 62.2923 70.6381 62.2449C70.6381 62.1975 70.567 61.9841 70.4959 61.7708C70.33 61.3441 70.4011 61.3204 70.97 61.5337ZM46.4604 62.1026C46.4604 62.3634 46.3656 62.5767 46.247 62.5767C45.9389 62.5767 45.4885 61.9604 45.6781 61.7945C45.9863 61.4626 46.4604 61.6523 46.4604 62.1026ZM47.8826 62.1026C47.8826 62.3634 47.7167 62.5767 47.527 62.5767C47.3374 62.5767 47.0767 62.3634 46.9344 62.1026C46.7211 61.676 46.7448 61.6286 47.29 61.6286C47.7167 61.6286 47.8826 61.7471 47.8826 62.1026ZM48.9018 61.9841C49.1152 62.5293 48.6411 62.6478 48.3567 62.1026C48.167 61.7234 48.167 61.6286 48.4515 61.6286C48.6174 61.6286 48.8307 61.7945 48.9018 61.9841Z"/>
</mask>
<path d="M70.0693 31.8093C69.8559 32.0938 69.69 32.7337 69.69 33.2078C69.69 33.9426 69.5715 34.1086 69.0263 34.3456C68.3389 34.63 66.1344 36.6449 66.1344 37.0004C66.1344 37.0952 65.5893 37.356 64.9493 37.5693C64.2856 37.7826 63.1952 38.3989 62.5078 38.9441C61.6544 39.6315 61.0856 39.8923 60.6589 39.8449C60.3033 39.8212 59.9478 39.8923 59.8767 40.0345C59.7818 40.1767 59.5211 40.2004 59.1656 40.0582C58.8574 39.9634 57.6959 39.8449 56.5581 39.8449L54.5196 39.8212L54.4722 40.4849C54.4485 40.8404 54.4011 41.6463 54.4011 42.31C54.3063 45.036 54.2826 45.2967 54.0456 45.1545C53.9033 45.0597 53.8085 45.2967 53.7848 45.676C53.7848 46.2686 53.7611 46.2923 53.5715 45.8656C53.1685 44.8937 53.453 42.1204 54.1641 40.4612C54.33 40.0819 54.2352 40.0345 53.3107 40.1056C52.3152 40.1767 52.2915 40.2004 51.9833 41.3619C51.8174 42.0019 51.6752 42.8078 51.6752 43.116C51.6752 43.6375 51.6989 43.6612 51.9833 43.3056C52.2204 42.95 52.2678 43.1397 52.2915 44.3723L52.3152 45.8656L52.0544 44.9175C51.8411 44.1589 51.7463 44.0641 51.6041 44.396C51.3433 45.0597 51.4144 47.3589 51.6752 47.9515C51.8174 48.236 51.5567 48.07 51.0826 47.5486C50.1107 46.4582 49.5418 44.7515 49.5656 43.0449L49.5893 41.836L49.8974 43.2582C50.0396 44.0404 50.3004 44.9412 50.4426 45.273C50.6796 45.7945 50.7033 45.7234 50.7033 44.6093C50.727 43.9219 50.9404 42.713 51.2011 41.9308C51.4855 41.1249 51.6752 40.4612 51.6278 40.4137C51.5804 40.39 51.2011 40.4612 50.7981 40.5797C50.2293 40.7219 50.0159 40.9352 49.9922 41.3145C49.9685 41.7175 49.9448 41.7412 49.85 41.4093C49.7078 40.8641 49.1152 41.03 47.4796 42.1204C45.9863 43.0923 45.0381 44.1826 45.0381 44.8463C45.0381 45.1308 44.967 45.273 44.8722 45.2019C44.6352 44.9649 43.5448 46.9086 43.7107 47.3115C43.7818 47.4775 43.7581 47.6434 43.6396 47.6434C43.5448 47.6434 43.2841 48.473 43.0707 49.4686C42.6915 51.1752 42.6915 51.3175 43.0944 51.7678C43.4737 52.2419 43.4737 52.2419 43.0944 51.9337C42.6204 51.5782 42.5018 51.7441 42.3833 52.8582C42.3359 53.19 42.17 53.593 42.0278 53.7589C41.8618 53.9249 41.7196 54.2093 41.7196 54.3515C41.7196 54.636 40.0841 55.4656 39.5152 55.4656C39.373 55.4656 38.8515 55.2286 38.4011 54.9204C37.287 54.2093 37.1211 53.0004 38.0218 52.1945C38.733 51.6019 38.8041 51.1515 38.2589 50.63C37.8322 50.2034 37.1448 50.1323 36.4811 50.4878C35.2011 51.1989 34.8693 54.233 35.9359 55.8212C36.9789 57.433 37.5478 57.7175 39.7522 57.7175C41.5537 57.7175 41.7433 57.67 42.5967 56.9826C43.853 55.9634 44.5167 54.636 45.0381 52.0997L45.4648 49.8952L45.4885 51.8389C45.5122 53.9486 45.3226 54.636 44.3981 56.0108L43.7581 56.9115L44.1848 59.0923C44.9196 62.9797 44.9196 62.8375 44.2085 61.6523C43.3315 60.1589 41.6722 59.0212 40.3685 59.0212C39.7759 59.0212 39.7996 59.0686 40.7952 59.6849C41.3641 60.0641 42.0041 60.5619 42.1937 60.8226C42.5256 61.2493 42.5256 61.2493 42.0752 60.8937C41.4589 60.3723 39.9655 59.9219 39.3018 60.0167C38.8278 60.0878 38.8989 60.1826 39.7759 60.633C40.3211 60.9175 40.7715 61.2019 40.7715 61.2493C40.7715 61.2967 40.3211 61.2967 39.7759 61.2256C38.7804 61.1308 38.7804 61.1308 39.3493 61.4626L39.9181 61.8182L39.3493 61.913C39.0174 61.9604 38.3774 61.913 37.927 61.7945C37.4767 61.6997 35.0352 61.5337 32.5463 61.4389C29.4648 61.3204 27.8767 61.1545 27.687 60.9649C27.5211 60.7989 27.213 60.6804 26.9759 60.6804C26.7389 60.6804 26.5492 60.5145 26.5492 60.3249C26.5492 60.1352 26.3833 59.9693 26.1937 59.9693C25.9804 59.9693 25.9093 60.1115 25.9804 60.3249C26.0989 60.5856 25.9567 60.6804 25.53 60.6804C25.1981 60.6804 23.6811 60.9412 22.1641 61.273C19.3433 61.8893 18.087 62.0552 16.0722 62.1263C15.4559 62.15 14.9344 62.2686 14.9344 62.3871C14.9344 62.4819 13.773 62.5767 12.327 62.5767C10.9048 62.5767 9.17443 62.7189 8.48703 62.8849C7.42036 63.1219 9.83814 63.193 23.9418 63.3115C33.1389 63.4063 44.8722 63.5723 50.0159 63.7145C62.413 64.07 81.2811 63.6434 80.3093 63.0271C80.1433 62.9086 79.1715 62.8137 78.1522 62.8137C76.0426 62.8137 75.8767 62.5767 77.4174 61.676L78.3419 61.1308L77.2278 61.2019C75.8767 61.2967 76.0426 60.9886 77.8204 60.0878L79.053 59.4478L77.6781 59.5426C76.7537 59.6137 76.09 59.8271 75.6159 60.1826C75.213 60.4671 74.9048 60.6093 74.9048 60.4908C74.9048 60.1589 77.1093 58.1678 77.9389 57.7412C78.9344 57.2197 78.887 57.03 77.8204 57.2434C76.5167 57.4804 74.8811 58.2389 74.0989 58.9737L73.4115 59.6137L73.8618 58.8315C74.4307 57.8597 76.1374 56.0819 77.0619 55.5367C77.9626 54.9915 77.9389 54.7545 76.9907 54.9678C74.8574 55.4656 72.7241 57.2197 71.7759 59.2582C71.2544 60.3486 70.8752 60.7515 70.8752 60.1826C70.8752 60.0641 71.1833 58.6893 71.5626 57.1723C71.9418 55.6552 72.3922 53.7589 72.5344 52.9767C72.7004 52.1945 73.0796 51.2463 73.3878 50.8434C74.1463 49.8478 74.6678 48.2834 74.6678 47.0271C74.6678 46.4819 74.7626 45.9604 74.8811 45.8656C75.0707 45.7471 75.2604 45.0123 75.7581 42.476C75.8293 42.1915 76.1374 41.8123 76.4693 41.6463C77.0381 41.4093 77.1567 41.433 77.607 42.0256C78.0574 42.5708 78.247 42.6419 78.887 42.5234C79.7641 42.3575 80.5937 41.433 80.5937 40.6745C80.5937 40.39 80.6885 40.0582 80.8307 39.916C80.9493 39.7975 81.1152 39.1812 81.1863 38.5649C81.3285 37.4745 81.2811 37.4034 80.4515 36.6686C79.9774 36.2419 79.4796 35.7915 79.3848 35.673C78.0574 34.0849 77.6544 33.6582 77.2515 33.5397C76.9907 33.4449 76.6826 33.113 76.5404 32.7812C76.3744 32.3071 76.2085 32.2123 75.7819 32.3545C74.5967 32.71 72.5344 32.473 71.6574 31.8567C70.6144 31.1693 70.5196 31.1456 70.0693 31.8093ZM73.0085 33.4212C73.293 33.4212 73.4589 33.516 73.3641 33.6345C73.2218 33.8952 71.8944 33.516 71.6811 33.1367C71.5863 32.9945 71.7285 33.0182 72.013 33.1604C72.2737 33.3026 72.7241 33.4212 73.0085 33.4212ZM75.1181 34.0375C74.6204 34.6537 74.1937 36.0523 74.1937 37.1663C74.1937 38.8019 75.687 39.9634 76.4693 38.9204C76.9433 38.3041 76.8722 38.1382 76.1611 38.2804C75.4974 38.4226 75.4974 38.4226 76.0426 38.1145L76.5641 37.7826L75.8767 37.2612C75.3789 36.9056 75.1419 36.8345 75.0707 37.0478C74.9759 37.2375 74.9285 37.19 74.9285 36.953C74.9048 36.5737 75.3315 36.0286 75.6633 36.0286C75.7581 36.0286 75.853 36.2419 75.853 36.5026C75.853 37.2137 76.9433 37.5693 77.6544 37.0952C78.2707 36.6923 78.413 36.0286 77.8915 36.0286C77.7019 36.0286 77.3937 35.8389 77.2278 35.5782C77.0619 35.3412 76.7063 35.0804 76.4456 35.033C76.1848 34.9619 76.4219 34.9145 76.9907 34.9145C77.7967 34.8908 78.0574 35.0093 78.247 35.4123C78.3893 35.673 78.9581 36.313 79.4796 36.8108L80.4752 37.7352L79.7167 37.593C79.1004 37.4982 78.9344 37.5456 78.9344 37.83C78.9344 38.0434 79.1478 38.2567 79.4085 38.3278C79.9774 38.47 80.0248 39.1812 79.4796 39.6078C79.1715 39.8686 79.0767 39.8686 79.0056 39.6315C78.8633 39.2523 78.5078 39.276 77.1093 39.7263C75.9715 40.0819 75.9241 40.0819 75.0944 39.5367C73.9804 38.8493 73.6722 37.9723 73.8618 36.2182C74.0278 34.6537 73.8618 34.4641 73.3404 35.673C72.9611 36.6212 72.9137 38.3278 73.2456 39.2523C73.4826 39.8449 73.4589 39.8686 73.1033 39.5604C72.8663 39.3708 72.5581 38.8967 72.3922 38.4937C71.8233 37.1663 72.7478 35.0567 74.2885 34.1086C75.1893 33.5634 75.5448 33.5397 75.1181 34.0375ZM76.2085 34.4641C75.8293 34.7486 75.8056 34.8434 76.0663 35.1752C76.327 35.4834 76.327 35.5545 76.0426 35.5545C75.687 35.5545 75.1419 35.1041 75.1419 34.796C75.1419 34.6775 75.3789 34.4878 75.687 34.3693C76.4693 34.0612 76.7063 34.0849 76.2085 34.4641ZM71.7048 35.3649C70.5433 37.4034 71.1122 40.1056 72.8426 40.9115L73.6011 41.2671L72.89 41.1723C72.5107 41.1249 71.9893 40.9826 71.7285 40.8878C71.3493 40.7219 71.3256 40.7456 71.5626 41.196C71.9893 41.9782 71.8707 42.073 71.2544 41.4804C70.9226 41.196 70.5907 40.6271 70.4959 40.2241C70.4248 39.8212 70.2115 39.3471 70.0219 39.1812C69.7848 38.9204 69.7137 38.9915 69.6189 39.513C69.5478 40.0819 69.5241 40.0345 69.4767 39.3234C69.4767 38.8493 69.69 37.996 70.0219 37.356C70.4959 36.4315 70.5196 36.2656 70.1878 36.3604C69.9744 36.4315 70.33 36.0286 70.9937 35.436C71.6337 34.8434 72.1789 34.3693 72.2263 34.3693C72.25 34.3693 72.013 34.8197 71.7048 35.3649ZM65.5893 39.6789C65.2574 40.4849 65.0915 41.4804 65.0915 42.6656L65.0678 44.4434L64.57 43.4004C64.0011 42.2863 64.0248 40.9826 64.6174 40.2715C64.807 40.0819 65.0441 39.5841 65.1863 39.2049C65.3285 38.8019 65.5893 38.47 65.7552 38.47C65.9922 38.47 65.9448 38.7782 65.5893 39.6789ZM56.8426 41.7886C56.4633 42.7841 56.3922 43.4715 56.4633 45.4389L56.5344 47.8567L56.0604 46.9797C55.373 45.676 55.3967 42.6656 56.1315 41.3145C56.4633 40.6745 56.7715 40.3663 56.9848 40.4375C57.2456 40.5323 57.2218 40.793 56.8426 41.7886ZM79.6693 40.8167C79.5744 41.1012 79.2663 41.3382 79.0056 41.3619C78.65 41.3856 78.5552 41.2908 78.65 41.03C78.8159 40.5797 79.1715 40.2952 79.5744 40.2952C79.7641 40.2952 79.8115 40.4612 79.6693 40.8167ZM59.1181 41.3856C58.4307 43.0449 58.4307 45.8182 59.1418 47.9989C59.2841 48.4019 59.213 48.3782 58.81 47.8804C57.9804 46.8849 57.5063 44.8937 57.7907 43.6137C58.0041 42.713 59.1418 40.5323 59.4026 40.5323C59.45 40.5323 59.3078 40.9115 59.1181 41.3856ZM61.1093 41.8834C60.7774 42.8078 60.5878 43.8745 60.5878 45.1071L60.5641 46.9797L60.1848 46.1263C59.9715 45.6523 59.7344 45.3441 59.6159 45.4389C59.5211 45.5575 59.4974 44.9412 59.5685 44.1115C59.6396 43.116 59.8293 42.5234 60.0426 42.3812C60.2559 42.2863 60.5404 41.8123 60.6826 41.3619C60.8248 40.9115 61.1093 40.5323 61.2752 40.5323C61.5122 40.5323 61.4885 40.8404 61.1093 41.8834ZM63.0767 43.0212C63.1952 43.8982 63.5033 45.1071 63.7641 45.6997C64.1196 46.5056 64.1433 46.6715 63.8826 46.4582C63.2426 45.913 63.1952 46.4345 63.8115 47.1219C64.5463 47.9041 65.1863 49.113 65.1863 49.7056C65.1626 49.9426 65.0204 50.393 64.8307 50.7249L64.4989 51.3175L64.4752 50.5826C64.4752 50.1086 64.0959 49.2789 63.4559 48.3308C62.247 46.553 61.8678 45.5575 61.8915 44.23V43.2582L62.2707 44.0167C62.7211 44.9175 63.1715 45.0597 62.9581 44.2537C62.7211 43.353 62.5078 41.1249 62.6737 41.2671C62.7685 41.3619 62.9581 42.1441 63.0767 43.0212ZM69.5478 45.6286C70.4959 46.79 70.8989 47.5486 71.1122 48.473L71.2544 49.1841L71.6811 48.3545C72.1789 47.43 73.2218 46.2212 73.5537 46.2212C73.6722 46.2212 73.6248 46.3871 73.4589 46.6004C73.1033 47.0271 72.7004 47.7382 71.3018 50.4167C70.2115 52.4789 69.9507 52.6923 70.093 51.3649C70.1878 50.6775 70.0693 50.0375 69.7848 49.4212L69.3581 48.473L69.287 49.3026C69.2396 49.753 69.1448 50.393 69.05 50.7249C68.9078 51.2463 68.8841 51.2226 68.7418 50.3693C68.6233 49.8004 68.647 49.35 68.7893 49.2789C68.9315 49.1841 68.6944 48.5204 68.1967 47.6197C67.3433 46.0789 66.6085 43.9219 66.6085 43.0449C66.6085 42.7604 66.8456 43.0923 67.1537 43.8034C67.7937 45.3441 70.2352 48.5441 70.3537 47.9989C70.4011 47.7856 69.9981 47.0271 69.453 46.316C68.3626 44.87 67.5804 43.2819 67.5567 42.5471C67.5567 42.2863 67.8411 42.6656 68.173 43.3767C68.5048 44.0878 69.1211 45.0834 69.5478 45.6286ZM71.3967 43.5663C71.9893 44.0641 72.4159 44.6093 72.3448 44.7278C72.25 44.8937 71.7048 44.5145 70.9937 43.8271C69.5952 42.4523 69.8322 42.2863 71.3967 43.5663ZM47.053 44.7278C46.9107 45.7471 47.2426 47.9278 47.7404 49.4212C47.8115 49.6819 47.6218 49.35 47.29 48.71C46.6974 47.5249 46.5078 45.4389 46.8396 44.1352C47.1004 43.2345 47.1952 43.5663 47.053 44.7278ZM52.173 56.0345C52.007 56.556 51.8174 57.2197 51.77 57.5041C51.6752 57.836 52.0781 58.713 52.9552 60.1826C53.69 61.3678 54.2826 62.4108 54.2826 62.4582C54.2826 62.5293 54.0693 62.5767 53.8322 62.5767C53.5478 62.5767 53.287 62.316 53.1211 61.8182C52.5759 60.2537 50.6322 58.073 51.1063 59.5426C51.2485 59.993 51.1537 59.9456 50.5137 59.3056C49.5893 58.4049 49.0915 58.31 49.6604 59.1634C50.087 59.8034 49.9685 60.2537 49.4944 59.7797C49.3285 59.6137 49.0678 59.4952 48.9018 59.4952C48.6885 59.4952 48.8307 59.8745 49.3048 60.5382C49.6841 61.1308 50.0159 61.6523 50.0159 61.7234C50.0159 61.7945 49.5418 61.3915 48.973 60.8226C48.2381 60.1115 47.8589 59.5426 47.7404 58.9026C47.5744 57.9071 47.527 57.9545 49.4707 56.6034C49.9922 56.2715 50.7507 55.3708 51.2011 54.5649L52.0307 53.1426L52.2441 54.0908C52.41 54.7545 52.3863 55.3471 52.173 56.0345ZM59.3315 53.7352C60.1374 53.9486 60.8959 54.2093 61.0144 54.3041C61.2515 54.5175 62.0811 58.8315 62.0811 59.9693C62.0811 60.7752 62.0811 60.7515 61.3937 59.3293C60.73 57.9782 59.3315 56.4137 58.7626 56.4137C58.6441 56.4137 58.81 56.8878 59.1418 57.433C59.9004 58.7604 59.9004 58.9026 59.0233 58.2863C58.2411 57.6937 57.7907 57.836 58.3596 58.476C59.0944 59.353 59.0233 59.4952 58.17 58.9026C57.6959 58.5708 57.1981 58.31 57.1033 58.31C56.7715 58.31 56.8663 58.713 57.293 59.0449C57.7433 59.4241 59.0233 61.3915 59.0233 61.7234C59.0233 61.8419 58.8337 61.7708 58.6204 61.5812C58.3833 61.3915 57.933 61.1545 57.6011 61.0834C56.4396 60.7989 55.1596 57.9545 55.9656 57.4567C56.3448 57.2197 57.6011 54.47 57.6011 53.8537C57.6011 53.2375 57.4826 53.2375 59.3315 53.7352ZM70.5196 55.5841C70.2826 56.5323 69.9981 56.7219 70.1404 55.8686C70.1404 55.7737 70.0456 55.7026 69.9033 55.7026C69.7137 55.7026 69.7137 55.5841 69.927 55.3471C70.093 55.1575 70.1404 54.9915 70.0219 54.9915C69.927 54.9915 70.0456 54.8493 70.3063 54.6597C70.5433 54.47 70.7804 54.3515 70.8041 54.3752C70.8278 54.3989 70.7093 54.9441 70.5196 55.5841ZM67.0826 57.5278C67.0589 59.7797 67.0115 60.23 66.7981 59.8508C66.49 59.3293 66.2293 55.7026 66.4426 55.11C66.5374 54.9204 66.7033 54.7545 66.8456 54.7545C66.9878 54.7545 67.0826 55.7737 67.0826 57.5278ZM46.9818 57.7649C46.8633 58.3337 46.8396 58.3575 46.6974 57.9545C46.5552 57.5752 46.7448 57.1723 47.0767 57.1249C47.1004 57.1249 47.053 57.4093 46.9818 57.7649ZM47.3137 60.1589C47.5981 60.8937 47.5981 60.9412 47.2189 60.87C47.0056 60.8226 46.8159 60.6093 46.8159 60.396C46.8159 60.1826 46.6026 59.8271 46.3418 59.6137C45.8678 59.2582 45.8678 59.2345 46.413 59.3056C46.7922 59.353 47.0767 59.6375 47.3137 60.1589ZM66.8456 61.51C67.0115 61.7234 67.0589 62.0315 66.9641 62.2686C66.7981 62.6715 66.7744 62.6478 66.6559 62.2212C66.49 61.4152 66.1344 61.2256 66.1344 61.9367C66.1344 62.6715 65.6841 62.79 65.4944 62.1026C65.4233 61.8419 65.2811 61.6286 65.1863 61.6286C65.0915 61.6286 64.9493 61.8419 64.8781 62.1026C64.7122 62.7189 64.2381 62.7189 64.0722 62.1026C64.0011 61.8419 63.8589 61.6286 63.7404 61.6286C63.6218 61.6286 63.527 61.8419 63.527 62.1026C63.527 62.3634 63.4085 62.5767 63.29 62.5767C62.9581 62.5767 62.7211 61.9604 62.9107 61.51C63.1004 61.0123 66.4189 61.0123 66.8456 61.51ZM70.97 61.5337C71.4441 61.7234 71.4678 62.3397 70.9937 62.3397C70.8041 62.3397 70.6381 62.2923 70.6381 62.2449C70.6381 62.1975 70.567 61.9841 70.4959 61.7708C70.33 61.3441 70.4011 61.3204 70.97 61.5337ZM46.4604 62.1026C46.4604 62.3634 46.3656 62.5767 46.247 62.5767C45.9389 62.5767 45.4885 61.9604 45.6781 61.7945C45.9863 61.4626 46.4604 61.6523 46.4604 62.1026ZM47.8826 62.1026C47.8826 62.3634 47.7167 62.5767 47.527 62.5767C47.3374 62.5767 47.0767 62.3634 46.9344 62.1026C46.7211 61.676 46.7448 61.6286 47.29 61.6286C47.7167 61.6286 47.8826 61.7471 47.8826 62.1026ZM48.9018 61.9841C49.1152 62.5293 48.6411 62.6478 48.3567 62.1026C48.167 61.7234 48.167 61.6286 48.4515 61.6286C48.6174 61.6286 48.8307 61.7945 48.9018 61.9841Z" fill="#F5ECE9" stroke="#F5ECE9" stroke-width="0.0474074" mask="url(#path-13-inside-2_2342_3334)"/>
<path d="M167.162 48.3174C165.719 48.8379 164.679 49.7368 163.97 51.085C163.568 51.8409 163.449 52.431 163.449 54.042C163.449 55.653 163.568 56.2431 163.97 56.999C164.538 58.0641 165.236 58.821 166.131 59.3115C167.026 59.8021 168.121 60.0273 169.482 60.0273C170.832 60.0273 171.518 59.9087 172.369 59.5068C172.802 59.2995 173.133 59.1278 173.371 58.9717C173.609 58.8154 173.752 58.6754 173.812 58.5322C173.87 58.3901 173.848 58.2419 173.747 58.0664C173.671 57.9345 173.551 57.7882 173.392 57.6182L173.219 57.4404L172.372 56.6182L171.67 57.1328C170.711 57.8466 169.272 57.9952 168.019 57.5215L167.771 57.4189C167.343 57.2409 167.045 57.0686 166.801 56.8301C166.556 56.5916 166.366 56.2876 166.152 55.8486C164.488 52.4017 167.841 49.0489 171.265 50.7129L172.371 51.2549L173.1 50.5254C173.254 50.3654 173.374 50.237 173.463 50.1289C173.551 50.021 173.608 49.934 173.637 49.8574C173.665 49.7812 173.667 49.7146 173.645 49.6475C173.622 49.5798 173.574 49.5103 173.503 49.4277C172.949 48.7672 171.897 48.299 170.716 48.0918C169.535 47.8847 168.227 47.9389 167.163 48.3174H167.162Z" fill="#F5ECE9" stroke="#F5ECE9" stroke-width="0.0237037"/>
<path d="M184.485 59.957H185.758L186.252 58.7793L186.749 57.5947L186.732 57.5869H192.497V57.5674L192.508 57.5938L193.006 58.7793L193.501 59.957H194.772C195.057 59.957 195.28 59.9543 195.454 59.9443C195.628 59.9343 195.752 59.9173 195.836 59.8896C195.92 59.8621 195.963 59.8241 195.981 59.7744C196 59.7238 195.994 59.6576 195.971 59.5693C195.953 59.5109 195.868 59.2996 195.728 58.9678C195.588 58.6363 195.393 58.1852 195.159 57.6475C194.691 56.572 194.063 55.1497 193.388 53.6445L190.925 48.1289H188.333L185.848 53.6924C185.16 55.233 184.532 56.6667 184.069 57.7393C183.838 58.2753 183.649 58.7213 183.515 59.0449C183.447 59.2067 183.393 59.3379 183.354 59.4346C183.316 59.5317 183.294 59.5935 183.288 59.6162C183.271 59.6856 183.274 59.7395 183.302 59.7822C183.33 59.8254 183.385 59.8604 183.476 59.8867C183.657 59.9394 183.976 59.957 184.485 59.957ZM190.555 55.4297C190.056 55.4772 189.202 55.4772 188.703 55.4297L187.756 55.3584L187.739 55.3574L187.746 55.3418L188.599 53.374C188.836 52.8407 189.073 52.3548 189.26 52.002C189.353 51.8257 189.434 51.6822 189.496 51.583C189.527 51.5334 189.554 51.4944 189.575 51.4678C189.586 51.4545 189.595 51.4438 189.604 51.4365C189.607 51.433 189.611 51.4299 189.615 51.4277C189.619 51.4256 189.624 51.4239 189.629 51.4238C189.639 51.4238 189.649 51.4295 189.658 51.4365C189.668 51.4439 189.679 51.4545 189.69 51.4678C189.714 51.4945 189.743 51.5335 189.775 51.583C189.84 51.6823 189.922 51.8258 190.016 52.002C190.202 52.3548 190.434 52.8406 190.659 53.374L191.513 55.3418L191.52 55.3574L191.503 55.3584L190.555 55.4297Z" fill="#F5ECE9" stroke="#F5ECE9" stroke-width="0.0237037"/>
<path d="M208.822 59.957V56.4492H208.834L211.275 56.3535C212.318 56.318 212.951 56.2829 213.406 56.1973C213.861 56.1117 214.138 55.9764 214.469 55.7402C215.674 54.8778 216.217 53.4477 216.138 52.0645C216.058 50.6813 215.355 49.3462 214.067 48.6729C213.594 48.4244 213.257 48.2887 212.651 48.2148C212.045 48.1409 211.169 48.1289 209.616 48.1289H206.238V59.957H208.822ZM208.822 50.4756H210.683C211.299 50.4756 211.798 50.5051 212.187 50.5645C212.478 50.6089 212.709 50.6706 212.882 50.749L213.036 50.833C213.562 51.2034 213.782 51.8659 213.723 52.5029C213.663 53.1401 213.324 53.7555 212.727 54.0303H212.726C212.558 54.102 212.225 54.1675 211.822 54.2148C211.419 54.2623 210.944 54.292 210.493 54.292H208.822V50.4756Z" fill="#F5ECE9" stroke="#F5ECE9" stroke-width="0.0237037"/>
<path d="M229.202 59.957V48.1289H226.855V59.957H229.202Z" fill="#F5ECE9" stroke="#F5ECE9" stroke-width="0.0237037"/>
<path d="M245.562 59.957V50.2383H249.355V48.1289H239.66V50.2383H243.216V59.957H245.562Z" fill="#F5ECE9" stroke="#F5ECE9" stroke-width="0.0237037"/>
<path d="M258.726 59.957H259.998L260.517 58.7783L261.013 57.5947L260.997 57.5869H266.785V57.5693L266.796 57.5938L267.317 58.7783L267.836 59.957H269.155C269.522 59.957 269.848 59.9329 270.075 59.8945C270.189 59.8753 270.277 59.853 270.334 59.8281C270.362 59.8156 270.382 59.803 270.393 59.791C270.403 59.7795 270.404 59.7694 270.4 59.7598V59.7578C270.399 59.7526 270.393 59.7373 270.383 59.7119C270.372 59.6864 270.357 59.6515 270.338 59.6074C270.3 59.519 270.245 59.394 270.176 59.2373C270.037 58.9237 269.839 58.4818 269.598 57.9443C269.115 56.8688 268.457 55.4103 267.746 53.834L265.188 48.1289H263.917C263.574 48.1289 263.248 48.1463 263.003 48.1758C262.88 48.1906 262.778 48.2087 262.703 48.2285C262.666 48.2384 262.636 48.2483 262.614 48.2588C262.592 48.2696 262.58 48.28 262.576 48.2881V48.2891L262.294 48.8818C262.139 49.2194 261.929 49.6826 261.683 50.2285C261.19 51.3203 260.554 52.744 259.925 54.1602C259.295 55.5764 258.672 56.9857 258.206 58.0479C257.973 58.5788 257.781 59.0236 257.646 59.3389C257.578 59.4963 257.524 59.6213 257.488 59.709C257.47 59.7527 257.457 59.7872 257.447 59.8115C257.443 59.8237 257.439 59.8339 257.437 59.8408C257.435 59.8441 257.435 59.8468 257.435 59.8486C257.434 59.8504 257.434 59.8508 257.434 59.8506L257.435 59.8516C257.435 59.8522 257.435 59.8534 257.437 59.8545C257.44 59.8575 257.446 59.8614 257.454 59.8652C257.471 59.8727 257.496 59.8796 257.528 59.8867C257.594 59.901 257.69 59.9145 257.808 59.9248C258.044 59.9455 258.37 59.957 258.726 59.957ZM261.938 55.46L262.673 53.873V53.8721C262.863 53.4333 263.065 52.9711 263.233 52.5801L263.598 51.7158C263.657 51.5495 263.722 51.4122 263.782 51.3223C263.812 51.2774 263.841 51.2434 263.868 51.2236C263.895 51.2043 263.922 51.1964 263.946 51.2119L263.947 51.2109L263.95 51.2158C263.957 51.2256 263.969 51.2484 263.986 51.2822C264.003 51.3165 264.025 51.3632 264.052 51.4199C264.105 51.5337 264.178 51.6898 264.263 51.8779C264.432 52.2542 264.651 52.7577 264.876 53.3027C265.113 53.8362 265.326 54.3404 265.48 54.7168C265.557 54.9049 265.619 55.0615 265.662 55.1738C265.684 55.2298 265.701 55.2749 265.712 55.3076C265.718 55.324 265.723 55.3376 265.726 55.3477C265.727 55.3525 265.728 55.3569 265.729 55.3604C265.729 55.3636 265.73 55.3672 265.73 55.3701C265.73 55.3764 265.726 55.3812 265.724 55.3838C265.721 55.3864 265.717 55.388 265.713 55.3896C265.705 55.393 265.695 55.3965 265.683 55.3994C265.657 55.4054 265.618 55.4114 265.57 55.417C265.474 55.4281 265.335 55.4384 265.165 55.4473C264.824 55.4651 264.355 55.4766 263.846 55.4766H261.931L261.938 55.46Z" fill="#F5ECE9" stroke="#F5ECE9" stroke-width="0.0237037"/>
<path d="M288.94 59.957V57.6104H283.015V48.1289H280.668V59.957H288.94Z" fill="#F5ECE9" stroke="#F5ECE9" stroke-width="0.0237037"/>
<path d="M145.294 54.7383V53.3398H129.91V54.7383H145.294Z" fill="#F5ECE9" stroke="#F5ECE9" stroke-width="0.0237037"/>
<path d="M322.364 54.7383V53.3398H306.98V54.7383H322.364Z" fill="#F5ECE9" stroke="#F5ECE9" stroke-width="0.0237037"/>
<path d="M57.8565 0.167315C55.984 0.451759 55.0832 0.759907 53.1158 1.77917C49.8447 3.46213 46.9291 7.1362 46.0521 10.6918C45.6017 12.5169 45.5469 15.0901 45.5469 15.0901L47.901 13.7732L50.3216 12.3208L52.1677 14.6029L53.9503 17L63.6907 10.7929L62.858 9.36435L62.0673 8.02358L68.9429 8.78753L70.5663 7.6416L72.1897 6.68667L70.8936 5.00287C70.8936 5.00287 69.1158 3.03546 67.5514 2.03991C65.1336 0.522871 60.938 -0.306759 57.8565 0.167315Z" fill="#0D3512"/>
<path d="M70.5716 7.63701L68.9482 8.78293L68.0887 12.0297L67.0383 15.4675L66.1789 14.3216L65.3194 13.1756C65.1535 13.2705 62.2715 15.3101 59.1664 17.3723C56.0612 19.4345 53.4064 21.0701 53.2404 21.0227C53.0982 20.9516 52.2449 19.8375 51.3678 18.5338L49.7797 16.1397L46.2207 18.3323L43.5469 20.0512L43.8775 20.5249L44.1198 20.9106L45.1812 20.2642C45.7264 19.9323 46.2715 19.6716 46.3901 19.6716C46.4849 19.6716 46.8167 20.2404 47.1249 20.9279C48.1915 23.393 50.9412 26.2375 53.6197 27.6123C57.2464 29.5086 62.1293 29.6034 66.1352 27.8967C67.2967 27.399 69.3115 25.9767 70.4019 24.8864C71.5397 23.7486 73.0567 21.5442 73.5782 20.2879C75.0715 16.7086 75.0004 12.276 73.4123 8.74415L72.195 6.68207L70.5716 7.63701Z" fill="#FF5722"/>
<path d="M68.9449 8.78739L62.0693 8.02344L63.6927 10.7928L53.9524 16.9999L50.3236 12.3207L42.0156 17.3818L43.639 19.9602L49.7506 16.1404L53.2839 21.0106L65.3161 13.1801L67.035 15.472L68.9449 8.78739Z" fill="#F5ECE9" stroke="#F5ECE9" stroke-width="0.190988"/>
</g>
<defs>
<clipPath id="clip0_2342_3334">
<rect width="366.696" height="64" fill="white"/>
</clipPath>
</defs>
</svg>
